<?xml version="1.0" encoding="UTF-8" standalone="no"?>
<svg
   height="16px"
   viewBox="0 0 16 16"
   width="16px"
   version="1.1"
   id="svg4"
   sodipodi:docname="window-maximize-symbolic.svg"
   inkscape:version="1.2.1 (9c6d41e410, 2022-07-14)"
   xmlns:inkscape="http://www.inkscape.org/namespaces/inkscape"
   xmlns:sodipodi="http://sodipodi.sourceforge.net/DTD/sodipodi-0.dtd"
   xmlns="http://www.w3.org/2000/svg"
   xmlns:svg="http://www.w3.org/2000/svg">
  <sodipodi:namedview
     id="namedview444"
     pagecolor="#ffffff"
     bordercolor="#000000"
     borderopacity="0.25"
     inkscape:showpageshadow="2"
     inkscape:pageopacity="0.0"
     inkscape:pagecheckerboard="0"
     inkscape:deskcolor="#d1d1d1"
     showgrid="false"
     inkscape:zoom="56.3125"
     inkscape:cx="6.8279689"
     inkscape:cy="8.0710322"
     inkscape:window-width="1478"
     inkscape:window-height="1305"
     inkscape:window-x="35"
     inkscape:window-y="32"
     inkscape:window-maximized="0"
     inkscape:current-layer="svg4" />
  <defs
     id="defs8" />
  <path
     style="color:#000000;fill:#241f31;stroke-linecap:round;stroke-linejoin:round;-inkscape-stroke:none"
     d="M 11.5,8.5 A 0.5,0.5 0 0 0 12,8 V 4.5 A 0.50005,0.50005 0 0 0 11.5,4 H 8 A 0.5,0.5 0 0 0 7.5,4.5 0.5,0.5 0 0 0 8,5 h 3 v 3 a 0.5,0.5 0 0 0 0.5,0.5 z"
     id="path865" />
  <path
     style="color:#000000;fill:#241f31;stroke-linecap:round;stroke-linejoin:round;-inkscape-stroke:none"
     d="M 4.5,7.5 A 0.5,0.5 0 0 0 4,8 v 3.5 A 0.50005,0.50005 0 0 0 4.5,12 H 8 A 0.5,0.5 0 0 0 8.5,11.5 0.5,0.5 0 0 0 8,11 H 5 V 8 A 0.5,0.5 0 0 0 4.5,7.5 Z"
     id="path565" />
  <path
     style="color:#000000;fill:#241f31;stroke-linecap:round;stroke-linejoin:round;-inkscape-stroke:none"
     d="M 8.5,4.5 A 0.5,0.5 0 0 0 8,4 H 4.5 A 0.50005,0.50005 0 0 0 4,4.5 V 8 A 0.5,0.5 0 0 0 4.5,8.5 0.5,0.5 0 0 0 5,8 V 5 H 8 A 0.5,0.5 0 0 0 8.5,4.5 Z"
     id="path631" />
  <path
     style="color:#000000;fill:#241f31;stroke-linecap:round;stroke-linejoin:round;-inkscape-stroke:none"
     d="M 7.5,11.5 A 0.5,0.5 0 0 0 8,12 h 3.500001 a 0.50005,0.50005 0 0 0 0.5,-0.5 V 8 a 0.5,0.5 0 0 0 -0.5,-0.5 0.5,0.5 0 0 0 -0.5,0.5 v 3 H 8 a 0.5,0.5 0 0 0 -0.5,0.5 z"
     id="path633" />
  <path
     style="color:#000000;fill:#241f31;stroke-linecap:round;stroke-linejoin:round;-inkscape-stroke:none"
     d="M 11.5,9.4 A 0.5,0.5 0 0 0 12,8.9 V 5.4 A 0.50005,0.50005 0 0 0 11.5,4.9 H 8 A 0.5,0.5 0 0 0 7.5,5.4 0.5,0.5 0 0 0 8,5.9 h 3 v 3 a 0.5,0.5 0 0 0 0.5,0.5 z"
     id="path766" />
  <path
     style="color:#000000;fill:#241f31;stroke-linecap:round;stroke-linejoin:round;-inkscape-stroke:none"
     d="M 8.5,5.4 A 0.5,0.5 0 0 0 8,4.9 H 4.5 A 0.50005,0.50005 0 0 0 4,5.4 V 8.9 A 0.5,0.5 0 0 0 4.5,9.4 0.5,0.5 0 0 0 5,8.9 v -3 H 8 A 0.5,0.5 0 0 0 8.5,5.4 Z"
     id="path768" />
</svg>
