<?xml version="1.0" encoding="UTF-8" standalone="no"?>
<svg
   height="16px"
   viewBox="0 0 16 16"
   width="16px"
   version="1.1"
   id="svg4"
   sodipodi:docname="window-restore-symbolic.svg"
   inkscape:version="1.2.1 (9c6d41e410, 2022-07-14)"
   xmlns:inkscape="http://www.inkscape.org/namespaces/inkscape"
   xmlns:sodipodi="http://sodipodi.sourceforge.net/DTD/sodipodi-0.dtd"
   xmlns="http://www.w3.org/2000/svg"
   xmlns:svg="http://www.w3.org/2000/svg">
  <sodipodi:namedview
     id="namedview438"
     pagecolor="#ffffff"
     bordercolor="#000000"
     borderopacity="0.25"
     inkscape:showpageshadow="2"
     inkscape:pageopacity="0.0"
     inkscape:pagecheckerboard="0"
     inkscape:deskcolor="#d1d1d1"
     showgrid="false"
     inkscape:zoom="45.387417"
     inkscape:cx="7.281754"
     inkscape:cy="8.5376087"
     inkscape:window-width="1478"
     inkscape:window-height="1305"
     inkscape:window-x="35"
     inkscape:window-y="32"
     inkscape:window-maximized="0"
     inkscape:current-layer="svg4" />
  <defs
     id="defs8" />
  <path
     style="color:#000000;fill:#241f31;stroke-width:1;stroke-linecap:round;stroke-linejoin:round;-inkscape-stroke:none"
     d="M 11.555556,7 C 11.801016,6.9999998 12,6.7454597 12,6.5 12,6.2545403 11.801016,6.0000002 11.555556,6 H 9 V 3.5 C 9,3.2545401 8.7454599,3 8.5,3 8.2545401,3 8,3.1989845 8,3.4444444 V 6.5555556 C 8.0000246,6.8010053 8.1989948,6.9999755 8.4444445,7 Z"
     id="path863" />
  <path
     style="color:#000000;fill:#241f31;stroke-width:1;stroke-linecap:round;stroke-linejoin:round;-inkscape-stroke:none"
     d="M 6.5,12 C 6.7454597,12 6.9999998,11.801016 7,11.555556 V 8.4444445 C 6.9999755,8.1989948 6.8010053,8.0000246 6.5555556,8 H 3.4444444 C 3.1989845,8 3,8.2545401 3,8.5 3,8.7454599 3.1989845,9 3.4444444,9 H 6 v 2.555556 C 6.0000002,11.801016 6.2545403,12 6.5,12 Z"
     id="path865" />
</svg>
